#!OML:ASF G:\JayActor3\Patient Classification 1\Patient 1\Session 5\male.ASF
:FULLY-SPECIFIED
:DEGREES
1144
root 55.3664 13.8232 -3.70494 -160.464 -85.2423 169.831
lowerback 33.0708 0.456951 0.413311
upperback 7.34926 -0.270714 -1.22374
thorax -8.8472 -0.47265 -1.35976
lowerneck -2.82046 0.643972 0.911667
upperneck -15.1881 0.572425 0.963515
head -4.51008 -0.00988152 0.163755
rclavicle -1.47101e-014 -9.74045e-015
rhumerus -21.8321 5.54338 -86.9715
rradius 46.9968
rwrist -4.68591
rhand -20.7697 -8.04269
rfingers 7.12502
rthumb 5.59668 -37.9488
lclavicle -1.47101e-014 -9.74045e-015
lhumerus -21.2178 -6.28655 83.3474
lradius 41.7143
lwrist 25.6665
lhand -19.1442 13.5879
lfingers 7.12502
lthumb 7.16595 43.4466
rfemur -64.751 0.445594 18.4558
rtibia 111.427
rfoot -11.6376 -7.60002
rtoes -19.3584
lfemur -53.3961 -3.8626 -25.929
ltibia 72.3835
lfoot -27.2991 10.4448
ltoes -3.75874
1145
root 55.4578 13.832 -3.70737 -160.46 -85.229 170.028
lowerback 32.9544 0.450319 0.422064
upperback 7.31069 -0.26907 -1.23112
thorax -8.84466 -0.469032 -1.37351
lowerneck -2.82743 0.640585 0.916479
upperneck -15.1923 0.566464 0.956213
head -4.5102 -0.0130114 0.160666
rclavicle 3.97569e-016 -1.88845e-014
rhumerus -21.8292 5.52646 -86.9999
rradius 47.066
rwrist -4.71322
rhand -20.7502 -8.07063
rfingers 7.12502
rthumb 5.61556 -37.9762
lclavicle 3.97569e-016 -1.88845e-014
lhumerus -21.1507 -6.33126 83.3184
lradius 41.6834
lwrist 25.665
lhand -19.1073 13.5551
lfingers 7.12502
lthumb 7.20155 43.4126
rfemur -63.9564 0.106819 18.4359
rtibia 111.668
rfoot -11.3144 -7.23308
rtoes -19.42
lfemur -53.8745 -3.99826 -25.7832
ltibia 72.0904
lfoot -26.9147 10.4755
ltoes -3.58898
1146
root 55.5493 13.8408 -3.71034 -160.322 -85.225 170.095
lowerback 32.8432 0.440718 0.432109
upperback 7.27275 -0.271094 -1.24029
thorax -8.84342 -0.467174 -1.38848
lowerneck -2.84163 0.637188 0.913186
upperneck -15.1993 0.560595 0.953806
head -4.51003 -0.0160143 0.160667
rclavicle 3.8763e-015 4.96962e-015
rhumerus -21.8372 5.51472 -87.0255
rradius 47.1647
rwrist -4.76504
rhand -20.7141 -8.12613
rfingers 7.12502
rthumb 5.65036 -38.0308
lclavicle 3.8763e-015 4.96962e-015
lhumerus -21.0773 -6.37007 83.2929
lradius 41.6663
lwrist 25.6614
lhand -19.0806 13.5476
lfingers 7.12502
lthumb 7.22737 43.4042
rfemur -63.1637 -0.20392 18.3964
rtibia 111.778
rfoot -10.9095 -6.86813
rtoes -19.4437
lfemur -54.3458 -4.13781 -25.6399
ltibia 71.7869
lfoot -26.5323 10.4647
ltoes -3.36366
1147
root 55.6409 13.85 -3.71391 -160.119 -85.2222 170.091
lowerback 32.7413 0.433162 0.44064
upperback 7.23768 -0.271747 -1.25016
thorax -8.84248 -0.464875 -1.40384
lowerneck -2.85333 0.634135 0.908052
upperneck -15.219 0.554943 0.952246
head -4.51507 -0.0191979 0.161321
rclavicle 1.19271e-015 7.05686e-015
rhumerus -21.852 5.51188 -87.0473
rradius 47.2849
rwrist -4.83923
rhand -20.6877 -8.19363
rfingers 7.12502
rthumb 5.6759 -38.0976
lclavicle 1.19271e-015 7.05686e-015
lhumerus -21.0076 -6.40752 83.2699
lradius 41.6774
lwrist 25.6695
lhand -19.0679 13.5446
lfingers 7.12502
lthumb 7.23965 43.4007
rfemur -62.3666 -0.466566 18.3439
rtibia 111.753
rfoot -10.4181 -6.5104
rtoes -19.3227
lfemur -54.7985 -4.27263 -25.4953
ltibia 71.472
lfoot -26.1598 10.3981
ltoes -3.07923
1148
root 55.7326 13.8593 -3.71821 -159.899 -85.2198 170.059
lowerback 32.6574 0.426547 0.448844
upperback 7.20542 -0.272251 -1.26016
thorax -8.84537 -0.46284 -1.41912
lowerneck -2.86434 0.633373 0.897641
upperneck -15.2471 0.552329 0.952488
head -4.52339 -0.0208977 0.163451
rclavicle 3.67752e-015 -3.47873e-015
rhumerus -21.8692 5.51955 -87.0671
rradius 47.4169
rwrist -4.92149
rhand -20.6704 -8.24183
rfingers 7.12502
rthumb 5.69255 -38.1454
lclavicle 3.67752e-015 -3.47873e-015
lhumerus -20.9509 -6.44305 83.2454
lradius 41.7243
lwrist 25.6961
lhand -19.0697 13.5553
lfingers 7.12502
lthumb 7.23791 43.4115
rfemur -61.5621 -0.677362 18.2859
rtibia 111.595
rfoot -9.8514 -6.15814
rtoes -19.1619
lfemur -55.2294 -4.39855 -25.3469
ltibia 71.149
lfoot -25.7903 10.2844
ltoes -2.76959
1149
root 55.8241 13.8677 -3.72347 -159.727 -85.211 170.062
lowerback 32.5927 0.425588 0.454843
upperback 7.17399 -0.26702 -1.26881
thorax -8.8546 -0.458428 -1.43378
lowerneck -2.85725 0.632314 0.880484
upperneck -15.2895 0.549167 0.949585
head -4.54056 -0.0225581 0.16575
rclavicle -7.45443e-015 -2.6339e-014
rhumerus -21.8928 5.54475 -87.0829
rradius 47.5548
rwrist -5.01338
rhand -20.6762 -8.25553
rfingers 7.12502
rthumb 5.68694 -38.1592
lclavicle -7.45443e-015 -2.6339e-014
lhumerus -20.9025 -6.46823 83.2268
lradius 41.7904
lwrist 25.7305
lhand -19.083 13.5676
lfingers 7.12502
lthumb 7.22502 43.4243
rfemur -60.754 -0.827827 18.2282
rtibia 111.314
rfoot -9.21088 -5.79344
rtoes -18.8724
lfemur -55.6447 -4.50359 -25.1928
ltibia 70.8289
lfoot -25.4222 10.1274
ltoes -2.43823
1150
root 55.9157 13.8754 -3.72964 -159.561 -85.1959 170.057
lowerback 32.5439 0.428106 0.454252
upperback 7.14519 -0.260434 -1.27736
thorax -8.86707 -0.453622 -1.44523
lowerneck -2.84786 0.62938 0.861345
upperneck -15.3339 0.543572 0.948072
head -4.55895 -0.025423 0.168948
rclavicle 8.94531e-016 -2.5842e-015
rhumerus -21.9138 5.58919 -87.0983
rradius 47.6908
rwrist -5.10426
rhand -20.7052 -8.23867
rfingers 7.12502
rthumb 5.65898 -38.1431
lclavicle 8.94531e-016 -2.5842e-015
lhumerus -20.8574 -6.4798 83.2094
lradius 41.8726
lwrist 25.775
lhand -19.1005 13.5641
lfingers 7.12502
lthumb 7.20815 43.4213
rfemur -59.949 -0.923531 18.1727
rtibia 110.912
rfoot -8.49848 -5.4205
rtoes -18.4966
lfemur -56.0468 -4.58892 -25.0385
ltibia 70.5133
lfoot -25.0542 9.93641
ltoes -2.08238
1151
root 56.0075 13.882 -3.73698 -159.465 -85.1773 170.115
lowerback 32.5081 0.433484 0.450637
upperback 7.11617 -0.251536 -1.28438
thorax -8.88477 -0.447896 -1.45421
lowerneck -2.82489 0.625164 0.841938
upperneck -15.3868 0.536038 0.942998
head -4.58311 -0.0291725 0.17107
rclavicle 6.55989e-015 1.19271e-015
rhumerus -21.9329 5.65078 -87.1148
rradius 47.8198
rwrist -5.18482
rhand -20.7432 -8.21667
rfingers 7.12502
rthumb 5.62226 -38.1221
lclavicle 6.55989e-015 1.19271e-015
lhumerus -20.8201 -6.4816 83.1942
lradius 41.9695
lwrist 25.8245
lhand -19.1159 13.5478
lfingers 7.12502
lthumb 7.19323 43.4055
rfemur -59.1522 -0.961484 18.1299
rtibia 110.4
rfoot -7.74501 -5.0451
rtoes -17.959
lfemur -56.4477 -4.65105 -24.8787
ltibia 70.2083
lfoot -24.687 9.7265
ltoes -1.72584
1152
root 56.0996 13.8877 -3.74528 -159.355 -85.1572 170.153
lowerback 32.4758 0.440557 0.440071
upperback 7.08965 -0.24309 -1.29065
thorax -8.90112 -0.442424 -1.45848
lowerneck -2.80868 0.618838 0.827863
upperneck -15.4349 0.524438 0.929272
head -4.60416 -0.034774 0.169453
rclavicle -6.85807e-015 -1.28216e-014
rhumerus -21.9447 5.7319 -87.1298
rradius 47.9407
rwrist -5.2587
rhand -20.7828 -8.18908
rfingers 7.12502
rthumb 5.58408 -38.0955
lclavicle -6.85807e-015 -1.28216e-014
lhumerus -20.7858 -6.47698 83.1813
lradius 42.0816
lwrist 25.882
lhand -19.1362 13.5304
lfingers 7.12502
lthumb 7.17369 43.3888
rfemur -58.3686 -0.957889 18.0975
rtibia 109.787
rfoot -6.97219 -4.68274
rtoes -17.239
lfemur -56.8506 -4.69531 -24.7217
ltibia 69.911
lfoot -24.3178 9.50734
ltoes -1.36397
1153
root 56.1922 13.8928 -3.75454 -159.239 -85.1382 170.183
lowerback 32.4463 0.447449 0.423833
upperback 7.06441 -0.236997 -1.29729
thorax -8.91718 -0.438046 -1.45923
lowerneck -2.79632 0.615029 0.825033
upperneck -15.4813 0.515144 0.906375
head -4.62377 -0.0394338 0.16269
rclavicle -5.96354e-016 1.64991e-014
rhumerus -21.9473 5.82923 -87.1474
rradius 48.0508
rwrist -5.32559
rhand -20.804 -8.19949
rfingers 7.12502
rthumb 5.56354 -38.1065
lclavicle -5.96354e-016 1.64991e-014
lhumerus -20.7508 -6.47097 83.1667
lradius 42.2022
lwrist 25.9465
lhand -19.1576 13.4946
lfingers 7.12502
lthumb 7.15298 43.3537
rfemur -57.6047 -0.918194 18.0841
rtibia 109.078
rfoot -6.22284 -4.36711
rtoes -16.4455
lfemur -57.2568 -4.72291 -24.568
ltibia 69.621
lfoot -23.9446 9.29019
ltoes -1.03349
1154
root 56.2852 13.8977 -3.76469 -159.109 -85.1231 170.195
lowerback 32.4172 0.453759 0.404459
upperback 7.04272 -0.232952 -1.30352
thorax -8.92952 -0.434685 -1.4571
lowerneck -2.79913 0.611688 0.825135
upperneck -15.5127 0.506338 0.882767
head -4.63482 -0.0436926 0.155107
rclavicle -2.88238e-015 -3.23025e-014
rhumerus -21.9363 5.93133 -87.1641
rradius 48.1469
rwrist -5.37859
rhand -20.7991 -8.23839
rfingers 7.12502
rthumb 5.56832 -38.1452
lclavicle -2.88238e-015 -3.23025e-014
lhumerus -20.7135 -6.46647 83.1517
lradius 42.3292
lwrist 26.0138
lhand -19.1796 13.4592
lfingers 7.12502
lthumb 7.13177 43.3191
rfemur -56.859 -0.845646 18.0945
rtibia 108.283
rfoot -5.53208 -4.12934
rtoes -15.6009
lfemur -57.6644 -4.7367 -24.4177
ltibia 69.3363
lfoot -23.5665 9.07289
ltoes -0.728109
1155
root 56.3786 13.901 -3.77567 -158.962 -85.1096 170.189
lowerback 32.3851 0.459316 0.379708
upperback 7.02586 -0.231957 -1.30943
thorax -8.93546 -0.432788 -1.45065
lowerneck -2.81848 0.613091 0.824901
upperneck -15.5296 0.504337 0.863003
head -4.63726 -0.0444784 0.148629
rclavicle 6.55989e-015 1.85864e-014
rhumerus -21.9106 6.04405 -87.1799
rradius 48.2304
rwrist -5.42669
rhand -20.7998 -8.28098
rfingers 7.12502
rthumb 5.56765 -38.1878
lclavicle 6.55989e-015 1.85864e-014
lhumerus -20.6673 -6.45989 83.1356
lradius 42.4563
lwrist 26.0835
lhand -19.2031 13.4286
lfingers 7.12502
lthumb 7.10907 43.2892
rfemur -56.1381 -0.756599 18.126
rtibia 107.422
rfoot -4.9345 -3.98531
rtoes -14.6449
lfemur -58.0814 -4.74098 -24.2698
ltibia 69.0657
lfoot -23.1815 8.85297
ltoes -0.440837
1156
root 56.4725 13.9027 -3.7875 -158.842 -85.0977 170.202
lowerback 32.3549 0.464878 0.356524
upperback 7.01376 -0.230977 -1.31537
thorax -8.93693 -0.431109 -1.44501
lowerneck -2.8331 0.612999 0.824592
upperneck -15.5457 0.501215 0.848864
head -4.64038 -0.0460131 0.144093
rclavicle -4.96962e-016 2.80286e-014
rhumerus -21.878 6.15662 -87.1937
rradius 48.3062
rwrist -5.4689
rhand -20.7981 -8.31908
rfingers 7.12502
rthumb 5.5693 -38.2259
lclavicle -4.96962e-016 2.80286e-014
lhumerus -20.6194 -6.46629 83.1178
lradius 42.5849
lwrist 26.1626
lhand -19.2249 13.3997
lfingers 7.12502
lthumb 7.08808 43.261
rfemur -55.4279 -0.649885 18.1807
rtibia 106.501
rfoot -4.44989 -3.97581
rtoes -13.4978
lfemur -58.4993 -4.73482 -24.1208
ltibia 68.81
lfoot -22.7871 8.63059
ltoes -0.178924
1157
root 56.5665 13.902 -3.80033 -158.776 -85.0869 170.257
lowerback 32.0607 0.471642 0.344713
upperback 7.43504 -0.227216 -1.26667
thorax -9.09642 -0.439894 -1.50178
lowerneck -2.84157 0.61089 0.818715
upperneck -15.5588 0.496877 0.84436
head -4.6436 -0.0481127 0.143808
rclavicle 8.54774e-015 5.06901e-015
rhumerus -21.8433 6.26554 -87.2049
rradius 48.3764
rwrist -5.50707
rhand -20.7933 -8.35519
rfingers 7.12502
rthumb 5.5739 -38.2619
lclavicle 8.54774e-015 5.06901e-015
lhumerus -20.5723 -6.47976 83.1026
lradius 42.7139
lwrist 26.2408
lhand -19.2406 13.3733
lfingers 7.12502
lthumb 7.07292 43.2352
rfemur -54.7249 -0.527213 18.2595
rtibia 105.531
rfoot -4.07789 -4.12118
rtoes -12.1883
lfemur -58.922 -4.71909 -23.9672
ltibia 68.5772
lfoot -22.3819 8.40879
ltoes 0.0613284
1158
root 56.6608 13.8993 -3.81408 -158.738 -85.0831 170.322
lowerback 32.0389 0.478049 0.328094
upperback 7.43209 -0.223781 -1.26978
thorax -9.08952 -0.437584 -1.49696
lowerneck -2.83473 0.603857 0.808048
upperneck -15.5727 0.487526 0.849117
head -4.65019 -0.0527159 0.147635
rclavicle 1.89839e-014 5.86415e-015
rhumerus -21.809 6.36753 -87.2112
rradius 48.4423
rwrist -5.54242
rhand -20.7857 -8.38137
rfingers 7.12502
rthumb 5.58123 -38.2879
lclavicle 1.89839e-014 5.86415e-015
lhumerus -20.5205 -6.49722 83.0951
lradius 42.8337
lwrist 26.313
lhand -19.249 13.3395
lfingers 7.12502
lthumb 7.06478 43.2016
rfemur -54.0238 -0.398915 18.3665
rtibia 104.504
rfoot -3.77395 -4.44675
rtoes -10.8962
lfemur -59.3384 -4.7009 -23.81
ltibia 68.3618
lfoot -21.9686 8.18994
ltoes 0.28876
